<svg width="224" height="24" xmlns="http://www.w3.org/2000/svg"><g fill="#FFF" fill-rule="evenodd"><path d="M139.757 14.082V7.197c0-.586.132-1.025.396-1.318.263-.293.61-.44 1.04-.44.449 0 .805.147 1.069.44.264.293.395.732.395 1.318v7.041c0 .801.09 1.47.269 2.007.179.537.496.954.952 1.25.456.296 1.094.444 1.914.444 1.133 0 1.934-.3 2.403-.903.468-.602.703-1.515.703-2.74V7.198c0-.592.13-1.033.39-1.323.26-.29.609-.435 1.045-.435.436 0 .79.145 1.06.435.27.29.405.73.405 1.323v6.885c0 1.12-.109 2.054-.327 2.803a4.327 4.327 0 0 1-1.235 1.972 4.799 4.799 0 0 1-1.817 1.055c-.69.221-1.497.332-2.422.332-1.1 0-2.047-.119-2.842-.356-.794-.238-1.442-.606-1.943-1.104-.501-.498-.869-1.136-1.103-1.914-.235-.778-.352-1.707-.352-2.788zm14.775 0V7.197c0-.586.132-1.025.396-1.318.264-.293.61-.44 1.04-.44.45 0 .806.147 1.07.44.263.293.395.732.395 1.318v7.041c0 .801.09 1.47.268 2.007.18.537.497.954.952 1.25.456.296 1.094.444 1.915.444 1.132 0 1.933-.3 2.402-.903.469-.602.703-1.515.703-2.74V7.198c0-.592.13-1.033.39-1.323.261-.29.61-.435 1.046-.435.436 0 .789.145 1.06.435.27.29.404.73.404 1.323v6.885c0 1.12-.109 2.054-.327 2.803a4.327 4.327 0 0 1-1.235 1.972 4.799 4.799 0 0 1-1.817 1.055c-.69.221-1.497.332-2.421.332-1.1 0-2.048-.119-2.842-.356-.794-.238-1.442-.606-1.944-1.104-.5-.498-.869-1.136-1.103-1.914-.234-.778-.352-1.707-.352-2.788zm20.313.342h-2.656v4.053c0 .579-.137 1.018-.41 1.318-.274.3-.62.45-1.036.45-.436 0-.788-.149-1.054-.445-.267-.296-.4-.731-.4-1.304V7.461c0-.638.146-1.094.439-1.367.293-.274.758-.41 1.396-.41h3.72c1.101 0 1.947.084 2.54.253a3.78 3.78 0 0 1 1.518.811c.427.378.75.84.972 1.387.221.547.332 1.162.332 1.845 0 1.459-.45 2.564-1.348 3.316-.898.752-2.236 1.128-4.013 1.128zm-.703-6.563h-1.953v4.375h1.953c.683 0 1.255-.071 1.714-.215.458-.143.808-.377 1.05-.703.24-.325.36-.752.36-1.279 0-.631-.185-1.146-.556-1.543-.417-.423-1.273-.635-2.568-.635zm14.365-2.422c1.484 0 2.759.302 3.823.904a5.855 5.855 0 0 1 2.417 2.568c.547 1.11.82 2.414.82 3.911 0 1.107-.15 2.113-.449 3.018-.3.905-.749 1.69-1.348 2.353a5.888 5.888 0 0 1-2.207 1.524c-.872.351-1.871.527-2.998.527-1.12 0-2.122-.18-3.007-.542-.886-.361-1.625-.87-2.217-1.528-.593-.658-1.04-1.449-1.343-2.373a9.58 9.58 0 0 1-.454-2.998c0-1.1.158-2.11.474-3.028.315-.918.773-1.699 1.372-2.343a5.934 5.934 0 0 1 2.187-1.48c.86-.342 1.836-.513 2.93-.513zm4.12 7.364c0-1.048-.168-1.957-.507-2.725-.338-.768-.822-1.35-1.45-1.743-.628-.394-1.35-.59-2.163-.59-.58 0-1.115.108-1.607.326a3.53 3.53 0 0 0-1.27.952c-.354.417-.634.95-.839 1.597-.205.648-.308 1.375-.308 2.183 0 .814.103 1.55.308 2.207.205.657.495 1.203.87 1.636.373.432.803.756 1.288.971a3.898 3.898 0 0 0 1.597.322c.742 0 1.424-.185 2.046-.556.622-.371 1.116-.944 1.484-1.719.368-.775.552-1.728.552-2.861zm11.3-7.364c1.484 0 2.758.302 3.823.904a5.855 5.855 0 0 1 2.417 2.568c.547 1.11.82 2.414.82 3.911 0 1.107-.15 2.113-.449 3.018-.3.905-.749 1.69-1.348 2.353a5.888 5.888 0 0 1-2.207 1.524c-.872.351-1.871.527-2.998.527-1.12 0-2.122-.18-3.008-.542-.885-.361-1.624-.87-2.216-1.528-.593-.658-1.04-1.449-1.343-2.373a9.58 9.58 0 0 1-.454-2.998c0-1.1.158-2.11.473-3.028.316-.918.773-1.699 1.372-2.343a5.934 5.934 0 0 1 2.188-1.48c.86-.342 1.836-.513 2.93-.513zm4.12 7.364c0-1.048-.169-1.957-.507-2.725-.339-.768-.822-1.35-1.45-1.743-.629-.394-1.35-.59-2.163-.59-.58 0-1.115.108-1.607.326a3.53 3.53 0 0 0-1.27.952c-.354.417-.634.95-.84 1.597-.204.648-.307 1.375-.307 2.183 0 .814.103 1.55.308 2.207.205.657.495 1.203.869 1.636.374.432.804.756 1.289.971a3.898 3.898 0 0 0 1.597.322c.742 0 1.424-.185 2.046-.556.621-.371 1.116-.944 1.484-1.719.368-.775.552-1.728.552-2.861zm10.557 1.62h-2.656v4.054c0 .579-.137 1.018-.41 1.318-.274.3-.619.45-1.035.45-.436 0-.788-.149-1.055-.445-.267-.296-.4-.731-.4-1.304V7.461c0-.638.146-1.094.44-1.367.292-.274.758-.41 1.396-.41h3.72c1.1 0 1.947.084 2.54.253a3.78 3.78 0 0 1 1.518.811c.426.378.75.84.972 1.387.22.547.332 1.162.332 1.845 0 1.459-.45 2.564-1.348 3.316-.898.752-2.236 1.128-4.014 1.128zm-.703-6.562h-1.953v4.375h1.953c.684 0 1.255-.071 1.714-.215.459-.143.809-.377 1.05-.703.24-.325.361-.752.361-1.279 0-.631-.185-1.146-.556-1.543-.417-.423-1.273-.635-2.569-.635z" fill-rule="nonzero"/><path d="M123 5h1v15h-1zM59.624 11.595V9.212h6.774v2.383h-6.774zm0-9.213V0h7.121v2.382h-7.121zm0 4.607V4.606h8.234V6.99h-8.234zM69.932.194h9.821v6.492h1.24v2.382h-3.554V2.577h-5.42l-.648 6.42-2.301-.245.862-8.558zm5.298 17.003a12.957 12.957 0 0 0 1.963-2.232c.596-.87.962-1.662 1.185-2.279h-6.296c.222.616.588 1.409 1.185 2.28a12.957 12.957 0 0 0 1.963 2.23zm5.79-5.607c-.016.214-.337 3.63-3.91 7.079 1.492 1.005 3.248 1.871 5.23 2.57l-.75 2.253c-2.658-.936-4.736-2.065-6.36-3.25-1.624 1.185-3.702 2.314-6.361 3.25l-.75-2.254c1.984-.698 3.739-1.564 5.23-2.57-3.572-3.447-3.893-6.864-3.91-7.078l-.1-1.286H81.12l-.1 1.286zm-19.007 8.72h2.89v-3.9h-2.89v3.9zM59.7 22.692v-8.666h7.52v8.666h-7.52zM105.346 7.55H111v2.383h-5.654v13.49h-2.315V9.933h-5.655V7.549h5.655V.135h2.315v7.414zm-16.974 4.507V9.674h6.775v2.382h-6.775zm.001-9.212V.46h7.122v2.383h-7.122zm0 4.606V5.068h8.234V7.45h-8.234zm2.389 13.322H94V16.87h-3.238v3.902zm-2.314 2.382v-8.666h7.867v8.666h-7.867zm-45.21-2.383c2.377.472 6.741.47 9.671.468h.53v2.382h-1.122c-3.27 0-7.466-.03-9.87-.585-3.733-.863-6.151-2.827-7.561-4.398-.97 2.799-2.813 5.225-2.918 5.362l-1.816-1.478c.836-1.09 3.005-4.47 3.005-6.96v-2.908h2.314v2.88c.223.37.744 1.155 1.622 2.014a11.895 11.895 0 0 0 3.83 2.518v-9.379h-8.777V8.304h20.17v2.383h-9.079v3.294h7.904v2.383h-7.904v4.407zM43.353.296v2.28h10.1v4.402H51.14v-2.02H33.322v2.02h-2.314V2.576H41.04V.296h2.314zM8.498 7.438V9.82H5.996v13.64H3.68v-6.942l-1.52 4.091L0 19.76l3.681-9.911V9.82h-2.6V7.438h2.6V3.67h-2.6V1.288h7.417v1.176h7.007V.097h2.315v2.367h7.12v2.383H8.386V3.67h-2.39v3.767h2.503zm6.112 3.692h4.106V8.706H14.61v2.424zm0 7.662h4.106v-5.279H14.61v5.28zm6.42-12.468v4.806h3.997v12.33h-2.314v-9.947H21.03v7.661h-8.736v-7.66h-1.682v9.946H8.299V11.13h3.996V6.324h8.736z"/></g></svg>